#!OML:ASF X:\für Bonn\!DataBase\2005_08_11_Bastian_Final\c3d\Bastian.ASF
:FULLY-SPECIFIED
:DEGREES
82
root 0.604121 16.6445 0.609019 137.315 -24.0109 -169.57
lowerback 47.8384 -6.73115 5.7859
upperback 16.6017 -14.2008 4.80423
thorax -0.562455 -10.7645 7.42094
lowerneck -7.25277 -10.2621 -7.64603
upperneck -11.3535 -11.1499 20.4512
head -0.357274 -5.07486 7.13593
rclavicle 1.41137e-014 -1.47101e-014
rhumerus -54.4991 40.9366 -112.151
rradius 39.3854
rwrist -35.261
rhand -33.0116 3.01208
rfingers 7.12502
rthumb -6.2254 -26.8764
lclavicle 1.41137e-014 -1.47101e-014
lhumerus 50.3938 -30.7582 72.2907
lradius 111.814
lwrist -23.4573
lhand -55.6127 -24.9055
lfingers 7.12502
lthumb -27.966 3.03142
rfemur -76.146 -6.7975 32.607
rtibia 136.29
rfoot 2.70033 1.68918
rtoes -11.5456
lfemur 25.6273 -4.72078 -14.8531
ltibia 35.538
lfoot -12.4781 -12.5525
ltoes 4.59331
83
root 0.597158 16.6927 0.608528 137.9 -23.4994 -169.432
lowerback 45.9001 -6.55489 5.82371
upperback 17.5571 -14.0324 4.73014
thorax -0.301383 -10.5923 7.23111
lowerneck -7.46083 -10.1917 -7.34894
upperneck -11.2718 -11.0813 20.0995
head -0.357564 -5.03368 6.97279
rclavicle 2.84262e-014 -3.77691e-014
rhumerus -53.1988 41.0413 -111.104
rradius 39.2668
rwrist -35.1674
rhand -33.1237 2.85051
rfingers 7.12502
rthumb -6.33366 -27.0348
lclavicle 2.84262e-014 -3.77691e-014
lhumerus 49.1008 -31.0963 72.7956
lradius 111.34
lwrist -22.8159
lhand -55.7428 -24.7748
lfingers 7.12502
lthumb -28.0904 3.14178
rfemur -73.6937 -6.65302 32.4334
rtibia 135.28
rfoot 2.64643 1.26256
rtoes -11.7743
lfemur 25.5334 -4.83086 -14.7211
ltibia 34.6478
lfoot -12.2449 -11.8827
ltoes 4.06713
84
root 0.590714 16.7479 0.605884 138.514 -22.9777 -169.297
lowerback 44.8487 -6.51928 6.05514
upperback 17.5498 -13.8328 4.7701
thorax -0.104851 -10.4134 6.96509
lowerneck -7.72178 -10.1349 -7.10114
upperneck -11.1052 -11.0485 19.7329
head -0.3176 -5.00586 6.806
rclavicle 5.40694e-014 -4.65156e-014
rhumerus -51.9446 41.1293 -110.059
rradius 39.1691
rwrist -35.0835
rhand -33.2755 2.72872
rfingers 7.12502
rthumb -6.48014 -27.1521
lclavicle 5.40694e-014 -4.65156e-014
lhumerus 47.7724 -31.4168 73.36
lradius 110.877
lwrist -21.9975
lhand -55.6848 -24.3363
lfingers 7.12502
lthumb -28.0349 3.58935
rfemur -71.1313 -6.45536 32.2268
rtibia 134.157
rfoot 2.73857 0.670192
rtoes -12.1446
lfemur 25.4542 -4.93246 -14.5679
ltibia 33.6855
lfoot -11.9583 -11.2429
ltoes 3.61626
85
root 0.584941 16.8083 0.601832 139.171 -22.4519 -169.187
lowerback 43.7068 -6.4678 6.28549
upperback 17.5585 -13.6189 4.78099
thorax 0.135513 -10.2196 6.64883
lowerneck -8.01224 -10.089 -6.77565
upperneck -10.8988 -11.0432 19.3228
head -0.265965 -4.99215 6.6098
rclavicle -7.07673e-014 8.18993e-014
rhumerus -50.606 41.092 -108.997
rradius 39.0595
rwrist -34.9277
rhand -33.4671 2.60384
rfingers 7.12502
rthumb -6.6651 -27.2713
lclavicle -7.07673e-014 8.18993e-014
lhumerus 46.4204 -31.735 73.9669
lradius 110.343
lwrist -21.0299
lhand -55.4402 -23.7083
lfingers 7.12502
lthumb -27.8011 4.25536
rfemur -68.5451 -6.19034 31.9788
rtibia 132.949
rfoot 2.91643 -0.103452
rtoes -12.9039
lfemur 25.392 -5.04349 -14.4462
ltibia 32.658
lfoot -11.6344 -10.5708
ltoes 3.34937
86
root 0.579712 16.8675 0.595221 139.861 -21.9285 -169.054
lowerback 42.4997 -6.42788 6.51002
upperback 17.5349 -13.4107 4.79902
thorax 0.371712 -10.0193 6.34095
lowerneck -8.20908 -10.0248 -6.50198
upperneck -10.6806 -11.022 18.9213
head -0.223726 -4.97722 6.43017
rclavicle -3.57812e-014 1.17681e-013
rhumerus -49.3824 41.0403 -107.998
rradius 38.9837
rwrist -34.7254
rhand -33.687 2.53097
rfingers 7.12502
rthumb -6.8774 -27.3373
lclavicle -3.57812e-014 1.17681e-013
lhumerus 44.9446 -32.0089 74.694
lradius 109.735
lwrist -19.989
lhand -55.0754 -22.8958
lfingers 7.12502
lthumb -27.4523 5.12374
rfemur -65.9009 -5.89107 31.7826
rtibia 131.599
rfoot 3.13244 -1.01379
rtoes -13.2097
lfemur 25.3147 -5.11348 -14.2574
ltibia 31.563
lfoot -11.3012 -9.92484
ltoes 2.64927
87
root 0.574125 16.9239 0.585809 140.578 -21.4158 -168.937
lowerback 41.2456 -6.38071 6.69949
upperback 17.4878 -13.2033 4.82775
thorax 0.614721 -9.81601 6.05755
lowerneck -8.25562 -9.94732 -6.24801
upperneck -10.5543 -10.9774 18.496
head -0.235284 -4.96294 6.25794
rclavicle 1.45113e-014 1.70955e-014
rhumerus -48.1638 40.914 -106.945
rradius 38.9314
rwrist -34.4698
rhand -33.8751 2.55534
rfingers 7.12502
rthumb -7.05905 -27.3069
lclavicle 1.45113e-014 1.70955e-014
lhumerus 43.3226 -32.2579 75.5922
lradius 109.005
lwrist -18.9274
lhand -54.61 -22.0753
lfingers 7.12502
lthumb -27.0071 6.01401
rfemur -63.1869 -5.57724 31.6075
rtibia 130.108
rfoot 3.28988 -1.9875
rtoes -13.1909
lfemur 25.2413 -5.15606 -14.0748
ltibia 30.4235
lfoot -10.9466 -9.29148
ltoes 1.99552
88
root 0.569292 16.9829 0.573782 141.34 -20.931 -168.873
lowerback 39.9513 -6.31531 6.83245
upperback 17.4251 -12.9845 4.83311
thorax 0.866119 -9.60053 5.76992
lowerneck -8.29861 -9.86226 -5.93522
upperneck -10.3687 -10.9403 18.0273
head -0.23573 -4.95455 6.06167
rclavicle 3.8763e-014 -2.70347e-014
rhumerus -46.9617 40.7395 -105.943
rradius 38.8632
rwrist -34.156
rhand -34.0667 2.70053
rfingers 7.12502
rthumb -7.24392 -27.1555
lclavicle 3.8763e-014 -2.70347e-014
lhumerus 41.598 -32.4945 76.5076
lradius 108.174
lwrist -17.8709
lhand -54.1459 -21.2091
lfingers 7.12502
lthumb -26.563 6.94825
rfemur -60.5064 -5.29184 31.4047
rtibia 128.479
rfoot 3.49837 -2.88597
rtoes -13.0546
lfemur 25.1716 -5.19434 -13.953
ltibia 29.2543
lfoot -10.5632 -8.65209
ltoes 1.35524
89
root 0.564587 17.0413 0.559177 142.123 -20.465 -168.82
lowerback 38.5126 -6.24237 6.94084
upperback 17.4483 -12.7688 4.82877
thorax 1.10217 -9.37224 5.46071
lowerneck -8.29353 -9.77849 -5.67196
upperneck -10.1685 -10.9058 17.5986
head -0.232311 -4.94921 5.88728
rclavicle 2.96189e-014 -8.62725e-014
rhumerus -45.7667 40.5056 -104.98
rradius 38.776
rwrist -33.8759
rhand -34.2479 2.95006
rfingers 7.12502
rthumb -7.41882 -26.8999
lclavicle 2.96189e-014 -8.62725e-014
lhumerus 39.7605 -32.7293 77.5095
lradius 107.109
lwrist -16.8902
lhand -53.7472 -20.5664
lfingers 7.12502
lthumb -26.1813 7.6481
rfemur -57.8628 -5.01701 31.1761
rtibia 126.707
rfoot 3.79414 -3.78656
rtoes -12.8276
lfemur 25.0964 -5.22573 -13.8394
ltibia 28.0677
lfoot -10.2101 -8.0147
ltoes 0.507896
90
root 0.559995 17.0981 0.541465 142.912 -20.0117 -168.788
lowerback 37.213 -6.18655 7.0353
upperback 17.3036 -12.543 4.83056
thorax 1.29402 -9.13972 5.19676
lowerneck -8.29511 -9.69933 -5.43416
upperneck -9.88951 -10.8986 17.1018
head -0.204869 -4.95809 5.69276
rclavicle 5.36719e-015 -2.78299e-014
rhumerus -44.7061 40.281 -104.064
rradius 38.7343
rwrist -33.5907
rhand -34.4222 3.24349
rfingers 7.12502
rthumb -7.58712 -26.6004
lclavicle 5.36719e-015 -2.78299e-014
lhumerus 37.7588 -32.9052 78.6018
lradius 105.856
lwrist -16.0357
lhand -53.4845 -20.1275
lfingers 7.12502
lthumb -25.9298 8.12408
rfemur -55.2423 -4.66115 30.9554
rtibia 124.804
rfoot 4.20296 -4.81532
rtoes -12.4139
lfemur 25.0449 -5.2707 -13.7569
ltibia 26.8634
lfoot -9.81929 -7.38569
ltoes 0.0585513
91
root 0.555936 17.1512 0.520477 143.764 -19.5842 -168.82
lowerback 35.8352 -6.11112 7.08286
upperback 17.1389 -12.2933 4.80384
thorax 1.50297 -8.88575 4.9118
lowerneck -8.22536 -9.62889 -5.20761
upperneck -9.63404 -10.8995 16.6272
head -0.191754 -4.97523 5.51052
rclavicle -1.17283e-014 3.69739e-014
rhumerus -43.6449 39.9196 -103.164
rradius 38.6621
rwrist -33.206
rhand -34.5275 3.58978
rfingers 7.12502
rthumb -7.68872 -26.2504
lclavicle -1.17283e-014 3.69739e-014
lhumerus 35.6754 -33.1227 79.6048
lradius 104.52
lwrist -15.2744
lhand -53.3482 -19.8167
lfingers 7.12502
lthumb -25.7992 8.4539
rfemur -52.7273 -4.18062 30.7122
rtibia 122.801
rfoot 4.64382 -5.82366
rtoes -11.9174
lfemur 24.9115 -5.28795 -13.7353
ltibia 25.7456
lfoot -9.47923 -6.76472
ltoes -0.540031
92
root 0.552813 17.2004 0.498868 144.646 -19.1814 -168.882
lowerback 34.4979 -6.05443 7.06911
upperback 16.8793 -12.0419 4.77243
thorax 1.61696 -8.62185 4.67327
lowerneck -8.09937 -9.53751 -5.03093
upperneck -9.29269 -10.8897 16.1374
head -0.161188 -4.99011 5.3326
rclavicle -7.35503e-015 1.51076e-014
rhumerus -42.8152 39.5277 -102.388
rradius 38.6337
rwrist -32.8299
rhand -34.6485 4.00221
rfingers 7.12502
rthumb -7.80548 -25.8337
lclavicle -7.35503e-015 1.51076e-014
lhumerus 33.4976 -33.2946 80.5769
lradius 103.088
lwrist -14.6174
lhand -53.2927 -19.5146
lfingers 7.12502
lthumb -25.7461 8.7637
rfemur -50.3367 -3.6332 30.4803
rtibia 120.658
rfoot 5.12496 -6.75686
rtoes -11.4007
lfemur 24.9351 -5.30034 -13.7455
ltibia 24.2439
lfoot -8.91249 -6.10098
ltoes -1.09119
93
root 0.550176 17.2388 0.47458 145.571 -18.7572 -168.975
lowerback 33.1729 -6.00051 7.06684
upperback 16.5213 -11.7384 4.71573
thorax 1.62711 -8.31296 4.40681
lowerneck -7.92682 -9.47898 -4.96573
upperneck -8.87371 -10.9318 15.7022
head -0.0988208 -5.03052 5.18558
rclavicle -3.97569e-014 -5.48646e-014
rhumerus -42.2012 38.9299 -101.735
rradius 38.6445
rwrist -32.3798
rhand -34.7668 4.35805
rfingers 7.12502
rthumb -7.91973 -25.4736
lclavicle -3.97569e-014 -5.48646e-014
lhumerus 31.1879 -33.5487 81.6101
lradius 101.522
lwrist -14.1224
lhand -53.3419 -19.2944
lfingers 7.12502
lthumb -25.7932 8.9771
rfemur -48.0266 -2.99821 30.269
rtibia 118.426
rfoot 5.55958 -7.61753
rtoes -10.9577
lfemur 24.8329 -5.2868 -13.7609
ltibia 22.953
lfoot -8.47101 -5.50003
ltoes -1.29366
94
root 0.547365 17.3418 0.454117 146.495 -18.3359 -169.098
lowerback 31.8843 -5.94656 7.0537
upperback 16.1095 -11.421 4.65571
thorax 1.58555 -7.99553 4.15215
lowerneck -7.70384 -9.42869 -4.94536
upperneck -8.41555 -10.9915 15.2559
head -0.0292327 -5.08223 5.04275
rclavicle 1.25234e-014 -2.46493e-014
rhumerus -41.7821 38.3679 -101.181
rradius 38.744
rwrist -32.013
rhand -34.9336 4.72603
rfingers 7.12502
rthumb -8.08066 -25.0995
lclavicle 1.25234e-014 -2.46493e-014
lhumerus 28.8315 -33.7583 82.6614
lradius 99.8344
lwrist -13.7664
lhand -53.4245 -19.0601
lfingers 7.12502
lthumb -25.8723 9.1998
rfemur -45.1 -2.3124 30.0434
rtibia 115.63
rfoot 5.83265 -8.48948
rtoes -10.5669
lfemur 24.7123 -5.30683 -13.8272
ltibia 21.7602
lfoot -8.0825 -4.86766
ltoes -1.34622
